<svg xmlns="http://www.w3.org/2000/svg" viewBox="0 0 220 220">
  <defs>
    <linearGradient id="b" x1="0" y1="0" x2="1" y2="1">
      <stop offset="0" stop-color="#3B82F6"></stop>
      <stop offset="1" stop-color="#1D4ED8"></stop>
    </linearGradient>
    <linearGradient id="p" x1="0" y1="0" x2="1" y2="1">
      <stop offset="0" stop-color="#A855F7"></stop>
      <stop offset="1" stop-color="#6D28D9"></stop>
    </linearGradient>
  </defs>

  <!-- background rounded -->
  <rect x="12" y="12" width="196" height="196" rx="44" fill="#0B1220"></rect>
  
  <!-- arcs -->
  <path d="M45 140 C70 175, 150 175, 175 140" fill="none" stroke="url(#p)" stroke-width="12" stroke-linecap="round"></path>
  <path d="M60 152 C85 178, 135 178, 160 152" fill="none" stroke="url(#b)" stroke-width="12" stroke-linecap="round"></path>

  <!-- nodes -->
  <circle cx="45" cy="140" r="12" fill="url(#p)"></circle>
  <circle cx="175" cy="140" r="12" fill="url(#b)"></circle>
  <circle cx="110" cy="165" r="12" fill="url(#b)"></circle>

  <!-- heads -->
  <circle cx="110" cy="70" r="24" fill="url(#b)"></circle>
  <circle cx="68" cy="90" r="18" fill="url(#p)"></circle>
  <circle cx="152" cy="90" r="18" fill="url(#p)"></circle>

  <!-- bodies -->
  <path d="M80 165 C82 120, 95 100, 110 100 C125 100, 138 120, 140 165 Z" fill="url(#b)"></path>
  <path d="M48 165 C50 135, 60 122, 68 122 C76 122, 86 135, 88 165 Z" fill="url(#p)"></path>
  <path d="M132 165 C134 135, 144 122, 152 122 C160 122, 170 135, 172 165 Z" fill="url(#p)"></path>
</svg>
